<svg xmlns="http://www.w3.org/2000/svg" viewBox="0 0 270.15 330.26">
  <path d="M119.97 19.35c-2.54 0-4.61-2.07-4.61-4.61s2.07-4.61 4.61-4.61 4.61 2.07 4.61 4.61-2.07 4.61-4.61 4.61zm30.21-19.35c-2.54 0-4.61 2.07-4.61 4.61s2.07 4.61 4.61 4.61 4.61-2.07 4.61-4.61-2.07-4.61-4.61-4.61zm-60.42 19.35c-2.54 0-4.61-2.07-4.61-4.61s2.07-4.61 4.61-4.61 4.61 2.07 4.61 4.61-2.07 4.61-4.61 4.61zm120.84 0c-2.54 0-4.61-2.07-4.61-4.61s2.07-4.61 4.61-4.61 4.61 2.07 4.61 4.61-2.07 4.61-4.61 4.61zm-90.63 291.56c-2.54 0-4.61 2.07-4.61 4.61s2.07 4.61 4.61 4.61 4.61-2.07 4.61-4.61-2.07-4.61-4.61-4.61zm60.42 19.35c-2.54 0-4.61-2.07-4.61-4.61s2.07-4.61 4.61-4.61 4.61 2.07 4.61 4.61-2.07 4.61-4.61 4.61zm-120.84-19.35c-2.54 0-4.61 2.07-4.61 4.61s2.07 4.61 4.61 4.61 4.61-2.07 4.61-4.61-2.07-4.61-4.61-4.61zm181.26 19.35c-2.54 0-4.61-2.07-4.61-4.61s2.07-4.61 4.61-4.61 4.61 2.07 4.61 4.61-2.07 4.61-4.61 4.61zm-90.63-155.78l-60.42 90.63 60.42 60.42 60.42-60.42-60.42-90.63zm0-116.23l-90.63 30.21v116.23l90.63-30.21 90.63 30.21v-116.23l-90.63-30.21z" fill="#ffffff"/>
</svg>
